<?xml version="1.0" encoding="utf-8"?>
<!-- Generator: Adobe Illustrator 16.0.0, SVG Export Plug-In . SVG Version: 6.00 Build 0)  -->
<!DOCTYPE svg PUBLIC "-//W3C//DTD SVG 1.1//EN" "http://www.w3.org/Graphics/SVG/1.1/DTD/svg11.dtd">
<svg version="1.1" id="Layer_1" xmlns="http://www.w3.org/2000/svg" xmlns:xlink="http://www.w3.org/1999/xlink" x="0px" y="0px"
	 width="500px" height="80.171px" viewBox="0 0 500 80.171" enable-background="new 0 0 500 80.171" xml:space="preserve">
<g>
	<path fill="#FFFFFF" d="M478.188,49.532c-1.109,3.404-2.75,8.086-3.858,11.915h8.207c-0.985-2.979-2.955-8.511-4.225-11.915
		H478.188z"/>
	<path fill="#FFFFFF" d="M395.867,47.085c-4.102-0.041-4.414,0.204-4.414,2.123v19.812c0,2.94,0.64,3.388,3.963,3.388
		c6.44,0,11.405-2.819,11.405-13.07C406.821,52.722,404.071,47.167,395.867,47.085z"/>
	<path fill="#FFFFFF" d="M418.804,40.171v-40h-145.3v40v40H500v-40H418.804z M376.068,6.979h10.257v0.875l-1.391,0.204
		c-1.396,0.203-1.741,0.835-1.413,2.021c1.559,5.965,4.084,14.772,5.645,20.729h0.041c1.802-6.809,4.348-17.021,5.784-22.979h2.75
		c2.131,6.809,4.594,14.894,6.77,22.127h0.123c1.396-5.106,3.938-14.135,5.005-19.609c0.369-1.716-0.576-2.146-1.888-2.269
		l-1.769-0.184V6.979h8.548v0.915c-1.71,0.163-3.146,0.926-3.72,2.926c-1.846,6.293-4.255,16.157-6.305,23.392h-2.464
		c-1.928-6.809-4.676-15.319-6.972-22.128h-0.042c-1.478,5.106-4.431,16.596-5.823,22.128h-2.872
		c-2.049-8.085-4.394-16.041-6.69-23.8c-0.657-2.205-1.01-2.436-3.574-2.559V6.979L376.068,6.979z M334.188,33.303
		c2.991-0.203,2.563-0.328,2.563-2.492V10.387c0-2.206,0.428-2.248-2.563-2.493V6.979h18.803v6.809h-0.422
		c-0.574-4.255-1.805-5.958-6.605-5.958h-3.325c-1.27,0-1.614,0.351-1.614,1.576v10.339h4.896c3.487,0,4.35-1.702,4.679-4.255h0.684
		v9.361h-0.682c-0.41-2.979-1.272-4.255-4.677-4.255h-4.898v9.315c0,2.819,0.296,3.546,5.014,3.546c4.963,0,7.187-0.946,8.171-6.052
		h0.861l-0.819,6.808h-20.063V33.303z M284.615,33.303c2.137-0.161,3.043-0.776,3.289-2.492c0.205-1.308,0.13-2.697,0.13-4.78
		V10.345c0-2.164,0-2.206-3.419-2.451V6.979h7.031c4.966,7.234,10.773,14.898,15.859,22.005l0.188,0.152V15.124
		c0-2.042-0.167-3.39-0.333-4.657c-0.245-1.717-0.949-2.328-3.94-2.573V6.979h8.547v0.915c-1.71,0.163-2.98,0.775-3.228,2.493
		c-0.205,1.266-0.192,2.695-0.192,4.737v19.089h-2.623c-5.211-7.66-10.914-16.17-16.45-23.83h-0.586v15.647
		c0,2.083,0.23,3.39,0.394,4.699c0.246,1.716,1.743,2.368,3.88,2.572v0.911h-8.547V33.303z M317.949,47.044
		c-3.419,0.245-3.419,0.286-3.419,2.492V69.96c0,2.165,0,2.247,3.419,2.492v0.91h-10.257v-0.91c3.419-0.245,3.419-0.327,3.419-2.492
		V49.532h-0.226c-2.543,5.107-7.302,16.17-10.297,23.83h-0.574c-2.791-5.957-7.178-16.596-10.541-23.83h-0.585v14.994
		c0,2.084,0.167,4.126,0.332,5.434c0.246,1.715,1.378,2.287,3.941,2.492v0.91h-8.547v-0.91c2.137-0.162,3.063-0.777,3.31-2.492
		c0.204-1.308,0.109-3.35,0.109-5.434V49.618c0-2.207,0-2.327-3.419-2.571v-0.919h7.4c2.913,6.809,6.728,14.469,9.764,21.277h0.082
		c1.436-3.404,6.688-15.319,9.148-21.277h6.939V47.044z M360.896,73.362h-20.726v-0.91c3.419-0.203,3.419-0.327,3.419-2.492V49.536
		c0-2.207,0-2.247-3.419-2.492v-0.916h19.658v6.809h-0.614c-0.574-4.255-1.806-5.957-6.606-5.957h-3.323
		c-1.271,0-1.424,0.35-1.424,1.575v10.34h4.706c3.486,0,4.349-1.702,4.678-4.255h0.875v9.361h-0.873
		c-0.409-2.979-1.271-4.256-4.678-4.256h-4.706v9.315c0,2.818,0.198,3.546,4.917,3.546c4.964,0,7.091-0.946,8.075-6.052h0.861
		L360.896,73.362z M396.22,73.362h-11.604v-0.91c2.564-0.203,2.564-0.368,2.564-2.533V49.536c0-2.207,0.427-2.287-2.564-2.492
		v-0.916h12.794c4.72,0,7.959,0.763,10.461,3.093c2.421,2.288,3.404,5.943,3.404,9.908C411.274,69.053,405.327,73.362,396.22,73.362
		z M444.444,47.044c-2.564,0.245-2.564,0.407-2.564,2.492V69.96c0,2.041,0,2.247,2.564,2.492v0.91h-10.256v-0.91
		c3.418-0.245,3.418-0.491,3.418-2.492V49.536c0-1.921,0-2.247-3.418-2.492v-0.916h10.256V47.044z M493.162,73.362h-10.256v-0.951
		l1.641-0.162c1.23-0.124,1.497-0.664,1.087-1.809c-0.697-2.004-1.948-6.012-2.769-8.14h-8.902
		c-0.779,2.554-1.436,4.505-2.051,6.833c-0.695,2.287-0.581,2.987,0.73,3.108l1.717,0.21v0.91h-7.692v-0.91
		c2.137-0.124,2.848-0.561,4.16-4.032c2.544-6.822,5.187-15.481,7.525-22.29h2.666c2.257,6.383,6.399,18.246,8.493,23.885
		c0.697,1.96,1.087,2.15,3.65,2.396V73.362L493.162,73.362z"/>
</g>
<g>
	<path d="M160.879,46.979h-0.042c-6.851,0-8.41,7.386-8.41,13.063s1.6,13.17,8.533,13.17c6.932,0,8.409-7.417,8.409-13.097
		C169.37,54.438,167.812,46.979,160.879,46.979z"/>
	<path d="M110.747,46.979h-0.042c-6.851,0-8.409,7.386-8.409,13.063s1.6,13.17,8.532,13.17c6.933,0,8.409-7.417,8.409-13.097
		C119.237,54.438,117.68,46.979,110.747,46.979z"/>
	<path d="M68.163,53.436c0-4.534-3.24-6.219-6.153-6.219c-2.543,0-3.035,0.154-3.035,1.788v10.74h3.075
		C66.438,59.745,68.163,57.521,68.163,53.436z"/>
	<path d="M23.608,52.948c0-4.412-3.206-5.728-6.283-5.728c-2.667,0-2.796,0.153-2.796,1.786v9.888h3.418
		C21.968,58.895,23.608,56.788,23.608,52.948z"/>
	<path d="M18.071,59.745H14.53v9.684c0,2.41,0.252,2.982,3.37,2.982c3.446,0,6.813-1.778,6.813-6.475
		C24.713,61.605,22.911,59.745,18.071,59.745z"/>
	<path d="M117.677,13.648c0-4.535-3.211-6.112-6.124-6.112c-2.544,0-3.006,0.26-3.006,1.894v10.315h3.017
		C115.954,19.746,117.677,17.733,117.677,13.648z"/>
	<path d="M50.427,0.171v40H0v40h273.504v-40v-40H50.427z M26.645,70.845c-1.928,1.634-4.8,2.518-8.369,2.518H7.692v-0.91
		c2.991-0.286,2.564-0.327,2.564-2.492V49.536c0-2.207,0.427-2.207-2.564-2.492v-0.916h11.526c4.39,0,8.376,1.009,8.376,6.155
		c0,3.024-1.955,5.379-6.229,6.154v0.163c3.846,0.488,7.54,2.036,7.54,6.733C28.908,67.706,28.081,69.537,26.645,70.845z
		 M76.068,73.362h-2.902c-2.667,0-4.226-1.212-4.718-3.743c-0.37-2.002-0.657-3.427-1.026-5.473c-0.573-2.898-1.722-3.55-5.373-3.55
		h-3.075v9.363c0,2.165,0,2.247,3.418,2.492v0.91H52.137v-0.91c3.419-0.245,3.419-0.327,3.419-2.492V49.536
		c0-2.207,0-2.247-3.419-2.492v-0.916H63.24c6.727,0,9.101,2.48,9.101,6.606c0,4.003-3.11,6.155-6.529,6.607v0.242
		c4.273,0.981,5.559,3.145,6.298,7.313c0.493,3.226,0.968,5.229,3.959,5.555V73.362L76.068,73.362z M110.747,73.882
		c-8.82,0-12.84-5.564-12.84-13.856s4.062-13.897,12.84-13.897h0.041c8.779,0,12.839,5.605,12.839,13.897
		S119.607,73.882,110.747,73.882z M160.879,73.882c-8.819,0-12.84-5.564-12.84-13.856s4.062-13.897,12.84-13.897h0.041
		c8.779,0,12.839,5.605,12.839,13.897S169.741,73.882,160.879,73.882z M222.089,73.432l-2.708-0.124
		c-2.543-0.123-4.641-0.571-6.897-3.185c-2.913-3.311-6.928-9.312-8.21-10.787v10.622c0,2.165,0,2.248,3.419,2.494v0.909h-11.111
		v-0.909C200,72.207,200,72.124,200,69.959V49.535c0-2.206,0-2.248-3.419-2.491v-0.916h11.111v0.916
		c-3.419,0.245-3.419,0.286-3.419,2.492v9.6c0.427-0.164,8.826-8.497,10.303-10.457c0.779-1.022,0.825-1.267,0.004-1.349
		l-1.76-0.286v-0.916h8.547v0.916c-3.419,0.203-3.496,0.571-5.547,2.206c-2.215,1.756-5.87,5.31-8.496,8.17
		c2.749,4.127,6.787,8.863,9.864,12.131c1.641,1.798,3.352,2.901,4.912,3.27L222.089,73.432z M251.916,73.882
		c-3.037,0-5.416-0.437-7.507-1.701l-0.37-6.479h0.862c1.025,4.256,3.445,7.582,7.055,7.582c3.487,0,5.744-1.827,5.744-5.788
		c0-3.556-3.077-4.998-5.907-6.223c-4.184-1.756-7.466-3.499-7.466-7.994c0-5.104,3.447-7.693,8.287-7.693
		c2.749,0,5.506,0.801,6.36,1.458v5.893h-0.29c-0.451-4.255-2.913-6.54-6.277-6.54c-3.322,0-4.799,2.243-4.799,5.143
		c0,3.431,2.625,4.86,5.416,6.046c4.799,1.959,8.164,3.185,8.164,8.331C261.188,69.758,258.685,73.882,251.916,73.882z
		 M240.171,6.979h22.223v6.809h-0.718c-0.534-4.255-1.396-5.958-5.949-5.958h-2.735v22.555c0,1.754,0.332,2.248,2.343,2.368
		l1.931,0.124v1.336h-11.965v-1.336l2.177-0.162c2.011-0.125,2.096-0.614,2.096-2.33V7.831h-2.83c-4.513,0-5.292,1.702-5.785,5.958
		h-0.787V6.979z M189.744,32.877c2.564-0.162,3.47-0.776,3.716-2.492c0.205-1.308,0.557-2.697,0.557-4.779V9.92
		c0-2.164,0-2.206-3.419-2.45V6.979h6.668c4.964,6.809,10.526,14.686,15.613,21.792l-0.059-0.061V14.698
		c0-2.041-0.167-3.389-0.332-4.656c-0.246-1.715-0.523-2.328-3.942-2.572V6.979h9.402V7.47c-2.137,0.162-3.408,0.776-3.655,2.492
		c-0.205,1.266-0.619,2.696-0.619,4.737v19.515h-2.133c-5.21-7.66-10.913-16.17-16.45-23.83h-0.221v15.223
		c0,2.083,0.23,3.39,0.394,4.699c0.246,1.716,1.316,2.367,3.88,2.571v1.337h-9.402V32.877z M147.009,32.877
		c2.991-0.204,2.564-0.327,2.564-2.492V9.961c0-2.206,0.427-2.248-2.564-2.492V6.979h18.803v6.809h-0.423
		c-0.574-4.255-1.804-5.958-6.604-5.958h-3.324c-1.271,0-1.616-0.075-1.616,1.15v10.765h4.896c3.487,0,4.349-1.702,4.677-4.255
		h0.684v9.361h-0.683c-0.41-3.404-1.271-4.255-4.677-4.255h-4.896v8.889c0,2.819,0.295,3.333,5.013,3.333
		c4.963,0,7.187-1.158,8.17-6.265h0.862l-0.82,7.66h-20.062V32.877z M101.709,32.877c3.419-0.244,3.419-0.327,3.419-2.492V9.961
		c0-2.206,0-2.248-3.419-2.492V6.979h11.044c6.728,0,9.131,2.268,9.131,6.394c0,4.002-3.081,5.943-6.5,6.394v0.243
		c4.274,0.98,5.559,3.145,6.298,7.313c0.492,3.227,0.967,5.23,3.959,5.555v1.336h-2.96c-2.667,0-4.225-1.424-4.718-3.956
		c-0.37-2.003-0.657-3.746-1.026-5.792c-0.574-2.898-1.723-3.87-5.375-3.87h-3.017v9.79c0,2.165,0,2.248,3.419,2.492v1.336h-10.256
		V32.877z M56.41,6.979h22.222v6.809h-0.259c-0.533-4.255-1.395-5.958-5.948-5.958h-2.34v22.555c0,1.754,0.332,2.248,2.342,2.368
		l1.931,0.124v1.336h-12.82v-1.336l2.178-0.162c2.01-0.125,2.096-0.614,2.096-2.33V7.831h-2.37c-4.512,0-5.292,1.702-5.785,5.958
		H56.41V6.979z"/>
</g>
</svg>
