<?xml version="1.0" encoding="utf-8"?>
<!-- Generator: Adobe Illustrator 16.0.0, SVG Export Plug-In . SVG Version: 6.00 Build 0)  -->
<!DOCTYPE svg PUBLIC "-//W3C//DTD SVG 1.1//EN" "http://www.w3.org/Graphics/SVG/1.1/DTD/svg11.dtd">
<svg version="1.1" id="Layer_1" xmlns="http://www.w3.org/2000/svg" xmlns:xlink="http://www.w3.org/1999/xlink" x="0px" y="0px"
	 width="585px" height="94px" viewBox="0 0 585 94" enable-background="new 0 0 585 94" xml:space="preserve">
<g>
	<path fill="#FFFFFF" d="M559.48,58c-1.297,4-3.217,9.5-4.514,14h9.602c-1.152-3.5-3.457-10-4.943-14H559.48z"/>
	<path fill="#FFFFFF" d="M463.164,55.124c-4.799-0.048-5.164,0.239-5.164,2.495v23.279c0,3.455,0.748,3.981,4.637,3.981
		c7.535,0,13.344-3.312,13.344-15.358C475.98,61.747,472.764,55.22,463.164,55.124z"/>
	<path fill="#FFFFFF" d="M490,47V0H320v47v47h265V47H490z M440,8h12v1.027l-1.627,0.239c-1.633,0.239-2.037,0.981-1.652,2.375
		c1.823,7.009,4.777,17.357,6.603,24.357h0.048c2.109-8,5.087-20,6.768-27h3.217c2.494,8,5.375,17.5,7.92,26h0.145
		c1.632-6,4.607-16.609,5.855-23.041c0.432-2.016-0.674-2.521-2.209-2.666L475,9.075V8h10v1.075c-2,0.191-3.68,1.088-4.352,3.438
		c-2.16,7.394-4.978,18.985-7.377,27.485h-2.881c-2.256-8-5.472-18-8.158-26h-0.049c-1.729,6-5.184,19.5-6.813,26h-3.36
		c-2.398-9.5-5.141-18.847-7.828-27.965C443.413,9.442,443,9.171,440,9.026V8L440,8z M391,38.93c3.5-0.239,3-0.385,3-2.928V12.004
		c0-2.592,0.5-2.641-3-2.929V8h22v8h-0.494c-0.672-5-2.111-7-7.729-7h-3.889c-1.486,0-1.89,0.412-1.89,1.852V23h5.729
		c4.08,0,5.088-2,5.473-5H411v11h-0.798c-0.479-3.5-1.488-5-5.472-5H399v10.945c0,3.312,0.346,4.166,5.865,4.166
		c5.807,0,8.408-1.111,9.561-7.111h1.008l-0.959,8H391V38.93z M333,38.93c2.5-0.19,3.561-0.912,3.848-2.928
		c0.24-1.536,0.152-3.168,0.152-5.616V11.955c0-2.543,0-2.592-4-2.88V8h8.227c5.809,8.5,12.604,17.505,18.555,25.855l0.22,0.178
		V17.57c0-2.399-0.196-3.983-0.388-5.472c-0.288-2.017-1.112-2.735-4.612-3.023V8h10v1.075c-2,0.191-3.487,0.911-3.776,2.929
		c-0.24,1.487-0.225,3.167-0.225,5.566V40h-3.07c-6.096-9-12.768-19-19.246-28H338v18.386c0,2.448,0.27,3.983,0.46,5.521
		c0.288,2.017,2.04,2.783,4.54,3.022V40h-10V38.93z M372,55.076c-4,0.287-4,0.336-4,2.928v23.998c0,2.544,0,2.641,4,2.928V86h-12
		v-1.07c4-0.287,4-0.384,4-2.928V58h-0.264c-2.975,6-8.543,19-12.047,28h-0.672c-3.265-7-8.398-19.5-12.334-28H338v17.618
		c0,2.448,0.195,4.848,0.389,6.384c0.287,2.016,1.611,2.688,4.611,2.928V86h-10v-1.07c2.5-0.19,3.584-0.912,3.872-2.928
		c0.239-1.536,0.128-3.936,0.128-6.384V58.1c0-2.592,0-2.734-4-3.021V54h8.658c3.408,8,7.871,17,11.424,25h0.096
		c1.68-4,7.824-18,10.703-25H372V55.076z M422.249,86H398v-1.07c4-0.239,4-0.384,4-2.928V58.004c0-2.592,0-2.641-4-2.928V54h23v8
		h-0.719c-0.672-5-2.112-7-7.729-7h-3.888c-1.488,0-1.666,0.412-1.666,1.852V69h5.506c4.079,0,5.088-2,5.473-5H419v11h-1.021
		c-0.479-3.5-1.487-5-5.473-5H407v10.945c0,3.312,0.232,4.166,5.753,4.166c5.808,0,8.296-1.111,9.448-7.111h1.008L422.249,86z
		 M463.577,86H450v-1.07c3-0.239,3-0.432,3-2.976v-23.95c0-2.592,0.5-2.688-3-2.928V54h14.969c5.521,0,9.312,0.896,12.239,3.634
		c2.832,2.688,3.983,6.983,3.983,11.641C481.191,80.936,474.232,86,463.577,86z M520,55.076c-3,0.287-3,0.479-3,2.928v23.998
		c0,2.398,0,2.641,3,2.928V86h-12v-1.07c4-0.287,4-0.576,4-2.928V58.004c0-2.256,0-2.641-4-2.928V54h12V55.076z M577,86h-12v-1.118
		l1.92-0.191c1.439-0.145,1.752-0.78,1.271-2.125c-0.815-2.353-2.279-7.063-3.239-9.563h-10.415c-0.912,3-1.68,5.293-2.4,8.028
		c-0.813,2.688-0.68,3.511,0.855,3.653L555,84.93V86h-9v-1.07c2.5-0.145,3.332-0.658,4.868-4.737
		c2.976-8.016,6.069-18.191,8.805-26.191h3.119c2.64,7.5,7.487,21.439,9.937,28.064c0.815,2.303,1.271,2.527,4.271,2.815V86L577,86z
		"/>
</g>
<g>
	<path d="M188.229,55h-0.049c-8.015,0-9.839,8.678-9.839,15.35s1.872,15.475,9.983,15.475c8.111,0,9.839-8.716,9.839-15.389
		C198.163,63.764,196.341,55,188.229,55z"/>
	<path d="M129.574,55h-0.049c-8.015,0-9.839,8.678-9.839,15.35s1.872,15.475,9.983,15.475s9.839-8.716,9.839-15.389
		C139.508,63.764,137.686,55,129.574,55z"/>
	<path d="M79.75,62.586c0-5.328-3.791-7.307-7.199-7.307C69.575,55.279,69,55.46,69,57.38V70h3.598
		C77.733,70,79.75,67.386,79.75,62.586z"/>
	<path d="M27.622,62.014c0-5.184-3.751-6.73-7.351-6.73c-3.12,0-3.271,0.179-3.271,2.099V69h3.999
		C25.702,69,27.622,66.525,27.622,62.014z"/>
	<path d="M21.143,70H17v11.378c0,2.832,0.295,3.504,3.943,3.504c4.032,0,7.971-2.09,7.971-7.607C28.914,72.186,26.806,70,21.143,70z
		"/>
	<path d="M137.682,15.836c0-5.328-3.757-7.182-7.165-7.182c-2.976,0-3.517,0.306-3.517,2.226V23h3.53
		C135.666,23,137.682,20.636,137.682,15.836z"/>
	<path d="M59,0v47H0v47h320V47V0H59z M31.174,83.041C28.918,84.961,25.558,86,21.383,86H9v-1.07c3.5-0.336,3-0.384,3-2.928V58.004
		c0-2.592,0.5-2.592-3-2.928V54h13.486c5.136,0,9.8,1.186,9.8,7.232c0,3.553-2.287,6.321-7.287,7.232v0.191
		c4.5,0.574,8.822,2.393,8.822,7.911C33.822,79.354,32.854,81.505,31.174,83.041z M89,86h-3.395c-3.12,0-4.944-1.424-5.52-4.398
		c-0.432-2.353-0.768-4.027-1.2-6.43C78.214,71.766,76.87,71,72.598,71H69v11.002c0,2.544,0,2.641,4,2.928V86H61v-1.07
		c4-0.287,4-0.384,4-2.928V58.004c0-2.592,0-2.641-4-2.928V54h12.99c7.871,0,10.648,2.914,10.648,7.762
		c0,4.703-3.639,7.233-7.639,7.763v0.286c5,1.152,6.504,3.695,7.368,8.593C84.944,82.194,85.5,84.547,89,84.93V86L89,86z
		 M129.574,86.609c-10.319,0-15.023-6.537-15.023-16.28S119.303,54,129.574,54h0.048c10.271,0,15.022,6.586,15.022,16.329
		S139.941,86.609,129.574,86.609z M188.229,86.609c-10.319,0-15.023-6.537-15.023-16.28S177.958,54,188.229,54h0.048
		c10.271,0,15.022,6.586,15.022,16.329S198.597,86.609,188.229,86.609z M259.844,86.082l-3.168-0.146
		c-2.976-0.146-5.43-0.672-8.07-3.743c-3.408-3.888-8.106-10.942-9.606-12.673V82c0,2.544,0,2.64,4,2.929v1.07h-13v-1.07
		c4-0.287,4-0.384,4-2.928V58.003c0-2.592,0-2.641-4-2.928V54h13v1.076c-4,0.287-4,0.336-4,2.928v11.279
		c0.5-0.192,10.326-9.983,12.054-12.287c0.912-1.2,0.965-1.488,0.005-1.584L249,55.076V54h10v1.076c-4,0.238-4.09,0.672-6.49,2.592
		c-2.592,2.062-6.868,6.239-9.94,9.6c3.216,4.849,7.941,10.414,11.541,14.254c1.92,2.112,3.922,3.408,5.747,3.841L259.844,86.082z
		 M294.741,86.609c-3.552,0-6.336-0.511-8.783-1.998L285.526,77h1.008c1.199,5,4.031,8.908,8.255,8.908
		c4.08,0,6.72-2.146,6.72-6.801c0-4.177-3.6-5.873-6.911-7.312c-4.896-2.062-8.735-4.111-8.735-9.393
		c0-5.998,4.033-9.039,9.696-9.039c3.217,0,6.441,0.942,7.441,1.713V62h-0.339c-0.528-5-3.408-7.686-7.345-7.686
		c-3.887,0-5.615,2.637-5.615,6.043c0,4.032,3.072,5.711,6.336,7.104c5.615,2.303,9.552,3.742,9.552,9.79
		C305.589,81.764,302.661,86.609,294.741,86.609z M281,8h26v8h-0.84c-0.624-5-1.633-7-6.96-7H296v26.502
		c0,2.062,0.389,2.641,2.74,2.783L301,38.43V40h-14v-1.57l2.548-0.19C291.9,38.094,292,37.518,292,35.503V9h-3.311
		c-5.28,0-6.192,2-6.768,7H281V8z M222,38.43c3-0.19,4.06-0.912,4.348-2.928c0.24-1.536,0.652-3.168,0.652-5.615V11.455
		c0-2.543,0-2.592-4-2.879V8h7.802c5.808,8,12.315,17.255,18.267,25.605L249,33.534V17.07c0-2.398-0.196-3.982-0.388-5.472
		C248.324,9.583,248,8.863,244,8.576V8h11v0.576c-2.5,0.19-3.988,0.912-4.276,2.928c-0.24,1.487-0.724,3.168-0.724,5.566V40h-2.495
		c-6.096-9-12.768-19-19.247-28H228v17.887c0,2.447,0.269,3.983,0.46,5.521c0.288,2.016,1.54,2.781,4.54,3.021V40h-11V38.43z
		 M172,38.43c3.5-0.239,3-0.384,3-2.928V11.504c0-2.592,0.5-2.641-3-2.928V8h22v8h-0.495c-0.672-5-2.111-7-7.727-7h-3.889
		c-1.487,0-1.89-0.088-1.89,1.352V23h5.729c4.08,0,5.088-2,5.472-5h0.8v11h-0.799c-0.479-4-1.487-5-5.472-5H180v10.445
		c0,3.312,0.345,3.916,5.865,3.916c5.808,0,8.409-1.361,9.56-7.361h1.008l-0.96,9H172V38.43z M119,38.43c4-0.287,4-0.384,4-2.928
		V11.504c0-2.592,0-2.641-4-2.928V8h12.922c7.872,0,10.683,2.664,10.683,7.512c0,4.703-3.604,6.983-7.604,7.513v0.286
		c5,1.152,6.504,3.695,7.368,8.593c0.576,3.791,1.132,6.145,4.632,6.526V40h-3.463c-3.12,0-4.943-1.674-5.52-4.648
		c-0.432-2.353-0.768-4.402-1.2-6.805C136.146,25.141,134.802,24,130.53,24H127v11.502c0,2.544,0,2.641,4,2.928V40h-12V38.43z M66,8
		h26v8h-0.303c-0.624-5-1.632-7-6.959-7H82v26.502c0,2.062,0.388,2.641,2.74,2.783L87,38.43V40H72v-1.57l2.548-0.19
		C76.9,38.094,77,37.518,77,35.503V9h-2.773c-5.279,0-6.191,2-6.768,7H66V8z"/>
</g>
</svg>
